<?xml version="1.0" encoding="UTF-8"?>
<svg width="51px" height="38px" viewBox="0 0 51 38" version="1.1" xmlns="http://www.w3.org/2000/svg" xmlns:xlink="http://www.w3.org/1999/xlink">
    <!-- Generator: Sketch 51.2 (57519) - http://www.bohemiancoding.com/sketch -->
    <title>cloudy</title>
    <desc>Created with Sketch.</desc>
    <defs></defs>
    <g id="Page-1" stroke="none" stroke-width="1" fill="none" fill-rule="evenodd">
        <g id="Artboard" transform="translate(-317.000000, -87.000000)" fill="#357491" fill-rule="nonzero">
            <g id="cloudy" transform="translate(317.000000, 86.000000)">
                <path d="M21.83256,36.83142 L42.54881,36.83042 C42.68631,36.83042 42.83006,36.83042 42.96381,36.84542 L42.96381,36.83172 C46.34756,36.83172 49.10006,34.07922 49.10006,30.69547 C49.10006,27.31172 46.34756,24.55922 42.96381,24.55922 C42.48631,24.55922 41.98881,24.62052 41.48381,24.74547 C41.32006,24.78547 41.14631,24.75667 41.00506,24.66167 C40.86506,24.56797 40.77006,24.42042 40.74381,24.25292 C40.05881,19.88667 36.35256,16.71667 31.93381,16.71667 C27.01006,16.71667 23.00381,20.72292 23.00381,25.64792 C23.00381,25.88917 23.02131,26.12792 23.04001,26.36542 C23.05501,26.54417 22.99001,26.72042 22.86126,26.84542 C22.73251,26.97042 22.55501,27.03042 22.37626,27.01417 C22.19751,26.99537 22.01751,26.98287 21.83251,26.98287 C19.11876,26.98287 16.91001,29.19287 16.91001,31.90662 C16.91001,34.62162 19.11876,36.83162 21.83251,36.83162 M21.80001,25.77787 C21.80001,25.73537 21.79901,25.69157 21.79901,25.64787 C21.79901,20.05912 26.34526,15.51162 31.93401,15.51162 C36.73901,15.51162 40.80026,18.81412 41.81776,23.44787 C42.20651,23.38417 42.58901,23.35417 42.96401,23.35417 C47.01276,23.35417 50.30526,26.64667 50.30526,30.69542 C50.30526,34.74292 47.01276,38.03667 42.96401,38.03667 L42.95801,38.03667 C42.86801,38.03567 40.55176,38.03567 37.48551,38.03567 L21.83301,38.03667 C18.45426,38.03667 15.70551,35.28667 15.70551,31.90667 C15.70551,28.53792 18.43551,25.79667 21.80051,25.77792" id="path74"></path>
                <path d="M9.83856,19.69392 C9.83856,14.32642 14.20606,9.96017 19.57231,9.96017 C22.85481,9.96017 25.69606,11.36517 27.50481,14.10642 C27.68731,14.38517 27.61106,14.75892 27.33356,14.94142 C27.05481,15.12642 26.68106,15.04892 26.49856,14.77142 C24.91356,12.36892 22.44731,11.16517 19.57231,11.16517 C14.86981,11.16517 11.04356,14.99017 11.04356,19.69392 C11.04356,22.60517 12.50606,25.28767 14.95481,26.86642 C15.23356,27.04767 15.31481,27.42017 15.13356,27.69892 C15.01981,27.87892 14.82606,27.97517 14.62856,27.97517 C14.51606,27.97517 14.40231,27.94517 14.30106,27.87897 C11.50731,26.07647 9.83856,23.01647 9.83856,19.69397" id="path78"></path>
                <path d="M19.44419,6.97905 C19.11044,6.97905 18.84169,6.7103 18.84169,6.3778 L18.84169,1.56405 C18.84169,1.23155 19.11044,0.9628 19.44419,0.9628 C19.77669,0.9628 20.04669,1.23155 20.04669,1.56405 L20.04669,6.3778 C20.04669,6.7103 19.77669,6.97905 19.44419,6.97905" id="path82"></path>
                <path d="M12.85307,8.8553 C12.75437,8.9166 12.64557,8.9453 12.53682,8.9453 C12.33557,8.9453 12.13807,8.84405 12.02307,8.6603 L9.49057,4.5678 C9.31682,4.2853 9.40307,3.91405 9.68557,3.7378 C9.96932,3.56405 10.33932,3.6503 10.51557,3.93405 L13.04807,8.0253 C13.22432,8.30905 13.13677,8.67905 12.85307,8.8553" id="path86"></path>
                <path d="M7.87132,13.92367 C7.77632,13.92367 7.67882,13.89987 7.58757,13.85237 L3.34257,11.57862 C3.04882,11.42237 2.93757,11.05737 3.09507,10.76362 C3.25132,10.46987 3.61632,10.35862 3.91132,10.51612 L8.15632,12.78987 C8.45007,12.94737 8.56132,13.31237 8.40257,13.60487 C8.29507,13.80862 8.08632,13.92362 7.87132,13.92362" id="path90"></path>
                <path d="M1.50169,18.8638 L1.50369,18.8638 L6.31869,18.8776 C6.65244,18.8776 6.92119,19.14885 6.91994,19.48135 C6.91894,19.81385 6.64994,20.0826 6.31744,20.0826 L6.31644,20.0826 L1.50144,20.0689 C1.16769,20.0679 0.89894,19.7964 0.89894,19.46265 C0.89994,19.1314 1.16894,18.8639 1.50144,18.8639" id="path94"></path>
                <path d="M3.40119,27.57717 L7.62869,25.26592 C7.92119,25.10717 8.28744,25.21342 8.44619,25.50717 C8.60619,25.79842 8.49869,26.16467 8.20619,26.32342 L3.97869,28.63467 C3.88749,28.68467 3.78869,28.70717 3.68994,28.70717 C3.47869,28.70717 3.27119,28.59467 3.16119,28.39342 C3.00244,28.10217 3.10999,27.73592 3.40119,27.57717" id="path98"></path>
                <path d="M35.48544,11.41392 L31.25794,13.72392 C31.16544,13.77522 31.06669,13.79772 30.96919,13.79772 C30.75669,13.79772 30.54919,13.68397 30.44044,13.48397 C30.28044,13.19272 30.38794,12.82647 30.68044,12.66772 L34.90794,10.35647 C35.20044,10.19647 35.56544,10.30397 35.72544,10.59647 C35.88419,10.88772 35.77794,11.25397 35.48544,11.41397" id="path102"></path>
                <path d="M11.96919,30.31404 C12.14669,30.03154 12.51669,29.94529 12.80044,30.12404 C13.08169,30.29904 13.16669,30.67154 12.99044,30.95279 L10.43669,35.03779 C10.32294,35.22029 10.12544,35.32154 9.92544,35.32154 C9.81544,35.32154 9.70544,35.29024 9.60669,35.23024 C9.32419,35.05274 9.23794,34.68024 9.41544,34.39899 L11.96919,30.31399 L11.96919,30.31404 Z" id="path106"></path>
                <path d="M26.91731,8.6783 C26.80356,8.8608 26.60606,8.96205 26.40606,8.96205 C26.29731,8.96205 26.18731,8.93205 26.08731,8.86955 C25.80481,8.6933 25.71981,8.32205 25.89606,8.0383 L28.45106,3.95455 C28.62731,3.67205 28.99856,3.5858 29.28106,3.7633 C29.56231,3.93955 29.64856,4.3108 29.47106,4.5933 L26.91731,8.6783 Z" id="path110"></path>
            </g>
        </g>
    </g>
</svg>