<?xml version="1.0" encoding="UTF-8"?>
<svg width="55px" height="36px" viewBox="0 0 55 36" version="1.1" xmlns="http://www.w3.org/2000/svg" xmlns:xlink="http://www.w3.org/1999/xlink">
    <!-- Generator: Sketch 51.2 (57519) - http://www.bohemiancoding.com/sketch -->
    <title>Group 3</title>
    <desc>Created with Sketch.</desc>
    <defs></defs>
    <g id="Page-1" stroke="none" stroke-width="1" fill="none" fill-rule="evenodd">
        <g id="Artboard" transform="translate(-175.000000, -227.000000)" fill="#357491" fill-rule="nonzero">
            <g id="Group-3" transform="translate(175.000000, 227.000000)">
                <path d="M23.33543,34.1413 L46.16168,34.1413 C46.31418,34.1413 46.47168,34.1413 46.62043,34.1575 L46.62043,34.1413 C50.34793,34.1413 53.38168,31.1088 53.38168,27.38005 C53.38168,23.6513 50.34793,20.6188 46.62043,20.6188 C46.09043,20.6188 45.54293,20.6876 44.98918,20.8238 C44.80918,20.8688 44.61668,20.8363 44.46168,20.7326 C44.30668,20.62885 44.20168,20.4676 44.17293,20.28385 C43.41793,15.4701 39.33543,11.97885 34.46543,11.97885 C29.03918,11.97885 24.62543,16.3926 24.62543,21.81885 C24.62543,22.08635 24.64423,22.34885 24.66543,22.6101 C24.68173,22.8076 24.60923,23.00135 24.46793,23.13885 C24.32543,23.27885 24.12918,23.3451 23.93418,23.32385 C23.73668,23.30385 23.53793,23.29015 23.33543,23.29015 C20.34418,23.29015 17.91043,25.7239 17.91043,28.71515 C17.91043,31.70765 20.34418,34.1414 23.33543,34.1414 M23.29923,21.96265 C23.29823,21.91515 23.29823,21.86645 23.29823,21.8189 C23.29823,15.66015 28.30823,10.6514 34.46573,10.6514 C39.76073,10.6514 44.23573,14.28765 45.35698,19.39515 C45.78323,19.32515 46.20573,19.2914 46.62073,19.2914 C51.08073,19.2914 54.70948,22.92015 54.70948,27.38015 C54.70948,31.84015 51.08073,35.4689 46.61698,35.4689 L40.58323,35.4689 L23.33573,35.4689 C19.61198,35.4689 16.58323,32.44015 16.58323,28.71515 C16.58323,25.00515 19.59198,21.98265 23.29948,21.96265" id="path3137"></path>
                <path d="M13.0484,31.95353 C8.8928,30.97687 5.29076,28.41645 3.04292,24.78739 C-1.63345,17.2376 0.71326,7.28917 8.26267,2.61272 C15.81244,-2.06364 25.73711,0.26074 30.41349,7.81043 C31.08453,8.8938 29.56571,9.38629 29.10074,8.63563 C24.86991,1.80517 15.896,-0.28166 9.06553,3.94921 C2.23504,8.18004 0.1468,17.10783 4.3779,23.93838 C6.40743,27.21495 9.64179,29.56114 13.39378,30.44294 C14.33095,30.6632 14.15631,32.21388 13.04803,31.95342 L13.0484,31.95353 Z" id="path3171"></path>
            </g>
        </g>
    </g>
</svg>