<?xml version="1.0" encoding="UTF-8"?>
<svg width="48px" height="43px" viewBox="0 0 48 43" version="1.1" xmlns="http://www.w3.org/2000/svg" xmlns:xlink="http://www.w3.org/1999/xlink">
    <!-- Generator: Sketch 51.2 (57519) - http://www.bohemiancoding.com/sketch -->
    <title>Group 4</title>
    <desc>Created with Sketch.</desc>
    <defs></defs>
    <g id="Page-1" stroke="none" stroke-width="1" fill="none" fill-rule="evenodd">
        <g id="Artboard" transform="translate(-318.000000, -224.000000)" fill="#357491" fill-rule="nonzero">
            <g id="Group-4" transform="translate(318.000000, 224.000000)">
                <path d="M6.07681,32.14105 C5.75806,31.98355 5.37181,32.11105 5.21181,32.42855 L0.86556,41.12105 C0.70681,41.43855 0.83556,41.82605 1.15431,41.98605 C1.24681,42.03225 1.34556,42.05485 1.44181,42.05485 C1.67931,42.05485 1.90681,41.9236 2.01931,41.6986 L6.36556,33.00485 C6.52431,32.68735 6.39556,32.29985 6.07681,32.1411" id="path378"></path>
                <path d="M13.32594,32.14105 C13.00719,31.98355 12.62094,32.11105 12.46094,32.42855 L8.11469,41.12105 C7.95594,41.43855 8.08469,41.82605 8.40344,41.98605 C8.49594,42.03225 8.59344,42.05485 8.69094,42.05485 C8.92719,42.05485 9.15469,41.9236 9.26844,41.6986 L13.61344,33.00485 C13.77344,32.68735 13.64474,32.29985 13.32594,32.1411" id="path382"></path>
                <path d="M20.57443,32.14105 C20.25693,31.98355 19.86943,32.11105 19.70943,32.42855 L15.36318,41.12105 C15.20443,41.43855 15.33318,41.82605 15.65193,41.98605 C15.74443,42.03225 15.84193,42.05485 15.93943,42.05485 C16.17568,42.05485 16.40443,41.9236 16.51693,41.6986 L20.86318,33.00485 C21.02193,32.68735 20.89318,32.29985 20.57443,32.1411" id="path386"></path>
                <path d="M27.82294,32.14105 C27.50419,31.98355 27.11794,32.11105 26.95794,32.42855 L22.61169,41.12105 C22.45169,41.43855 22.58169,41.82605 22.90044,41.98605 C22.99294,42.03225 23.09044,42.05485 23.18794,42.05485 C23.42419,42.05485 23.65169,41.9236 23.76544,41.6986 L28.11044,33.00485 C28.27044,32.68735 28.14174,32.29985 27.82294,32.1411" id="path390"></path>
                <path d="M35.07093,32.14105 C34.75218,31.98355 34.36593,32.11105 34.20593,32.42855 L29.85968,41.12105 C29.70093,41.43855 29.82968,41.82605 30.14843,41.98605 C30.24093,42.03225 30.33843,42.05485 30.43593,42.05485 C30.67218,42.05485 30.90093,41.9236 31.01343,41.6986 L35.35968,33.00485 C35.51843,32.68735 35.38968,32.29985 35.07093,32.1411" id="path394"></path>
                <path d="M42.03193,32.14105 C41.71318,31.98355 41.32693,32.11105 41.16693,32.42855 L36.82068,41.12105 C36.66193,41.43855 36.79068,41.82605 37.10943,41.98605 C37.20193,42.03225 37.29943,42.05485 37.39693,42.05485 C37.63318,42.05485 37.86193,41.9236 37.97443,41.6986 L42.32068,33.00485 C42.47943,32.68735 42.35068,32.29985 42.03193,32.1411" id="path398"></path>
                <path d="M47.66856,32.14105 C47.34981,31.98355 46.96356,32.11105 46.80356,32.42855 L42.45731,41.12105 C42.29856,41.43855 42.42731,41.82605 42.74606,41.98605 C42.83856,42.03225 42.93606,42.05485 43.03356,42.05485 C43.26981,42.05485 43.49856,41.9236 43.61106,41.6986 L47.95731,33.00485 C48.11606,32.68735 47.98731,32.29985 47.66856,32.1411" id="path402"></path>
                <path d="M17.05094,27.23629 L39.22719,27.23629 C39.37469,27.23629 39.52844,27.23629 39.67219,27.25249 L39.67219,27.23629 C43.29469,27.23629 46.24094,24.29004 46.24094,20.66629 C46.24094,17.04504 43.29469,14.09754 39.67219,14.09754 C39.15969,14.09754 38.62719,14.16504 38.08719,14.29754 C37.91219,14.34254 37.72719,14.31004 37.57469,14.21004 C37.42469,14.11004 37.32344,13.95129 37.29469,13.77254 C36.56094,9.09754 32.59469,5.70379 27.86344,5.70379 C22.59344,5.70379 18.30469,9.99254 18.30469,15.26379 C18.30469,15.52379 18.32219,15.77879 18.34339,16.03254 C18.35969,16.22379 18.28969,16.41379 18.15089,16.54754 C18.01339,16.68254 17.82214,16.74629 17.63089,16.72754 C17.44089,16.70624 17.24714,16.69384 17.05089,16.69384 C14.14464,16.69384 11.78089,19.05884 11.78089,21.96509 C11.78089,24.87134 14.14464,27.23634 17.05089,27.23634 M17.01589,15.40384 C17.01489,15.35764 17.01489,15.31134 17.01489,15.26384 C17.01489,9.28259 21.88239,4.41384 27.86364,4.41384 C33.00864,4.41384 37.35614,7.94759 38.44489,12.91009 C38.85989,12.84129 39.26989,12.80759 39.67239,12.80759 C44.00489,12.80759 47.53114,16.33259 47.53114,20.66634 C47.53114,25.00009 44.00489,28.52509 39.66864,28.52509 L33.80739,28.52509 L17.05114,28.52509 C13.43364,28.52509 10.48989,25.58259 10.48989,21.96509 C10.48989,18.35884 13.41489,15.42259 17.01614,15.40384" id="path406"></path>
                <path d="M9.15181,8.46192 C9.55431,8.46192 9.96431,8.49562 10.37806,8.56317 C11.46806,3.60067 15.81556,0.06817 20.95931,0.06817 C23.20056,0.06817 25.34931,0.74442 27.17681,2.02692 C27.46931,2.23067 27.53931,2.63192 27.33556,2.92317 C27.13056,3.21567 26.72931,3.28567 26.43681,3.08192 C24.82806,1.95442 22.93306,1.35692 20.95931,1.35692 C16.22931,1.35692 12.26181,4.75067 11.52806,9.42567 C11.50056,9.60442 11.39931,9.76317 11.24806,9.86317 C11.09806,9.96317 10.91306,9.99442 10.73681,9.95197 C10.19806,9.81947 9.66556,9.75197 9.15181,9.75197 C5.52931,9.75197 2.58306,12.69947 2.58306,16.32072 C2.58306,19.69947 5.11306,22.50822 8.46806,22.85447 C8.82306,22.89067 9.08056,23.20822 9.04431,23.56197 C9.00931,23.89447 8.72931,24.14072 8.40306,24.14072 C8.38056,24.14072 8.35806,24.13972 8.33556,24.13872 C4.32056,23.72372 1.29181,20.36372 1.29181,16.32122 C1.29181,11.98747 4.81806,8.46247 9.15181,8.46247" id="path410"></path>
            </g>
        </g>
    </g>
</svg>