<?xml version="1.0" encoding="UTF-8"?>
<svg width="47px" height="48px" viewBox="0 0 47 48" version="1.1" xmlns="http://www.w3.org/2000/svg" xmlns:xlink="http://www.w3.org/1999/xlink">
    <!-- Generator: Sketch 51.2 (57519) - http://www.bohemiancoding.com/sketch -->
    <title>Group 5</title>
    <desc>Created with Sketch.</desc>
    <defs></defs>
    <g id="Page-1" stroke="none" stroke-width="1" fill="none" fill-rule="evenodd">
        <g id="Group-5" fill="#357491" fill-rule="nonzero">
            <path d="M15.87356,28.1333 L38.03856,28.1333 C38.18606,28.1333 38.33981,28.1333 38.48356,28.1483 L38.48356,28.1333 C42.10356,28.1333 45.04981,25.1883 45.04981,21.5683 C45.04981,17.94705 42.10356,15.00205 38.48356,15.00205 C37.96981,15.00205 37.43606,15.06955 36.89981,15.20205 C36.72481,15.24575 36.53856,15.21335 36.38731,15.11325 C36.23731,15.01325 36.13481,14.8545 36.10731,14.677 C35.37481,10.00325 31.40856,6.612 26.68106,6.612 C21.41231,6.612 17.12481,10.89825 17.12481,16.16825 C17.12481,16.427 17.14481,16.68325 17.16611,16.93575 C17.17981,17.12825 17.10981,17.317 16.97236,17.45075 C16.83611,17.5845 16.64361,17.6495 16.45486,17.6295 C16.26361,17.6095 16.06986,17.597 15.87361,17.597 C12.96861,17.597 10.60486,19.96075 10.60486,22.8645 C10.60486,25.7695 12.96861,28.13325 15.87361,28.13325 M15.83741,16.30825 C15.83741,16.26075 15.83641,16.21455 15.83641,16.16825 C15.83641,10.18825 20.70266,5.32325 26.68141,5.32325 C31.82266,5.32325 36.16891,8.8545 37.25766,13.8145 C37.67016,13.747 38.08141,13.712 38.48391,13.712 C42.81516,13.712 46.33891,17.237 46.33891,21.56825 C46.33891,25.8995 42.81516,29.42325 38.48016,29.42325 L32.62141,29.42325 L15.87391,29.42325 C12.25766,29.42325 9.31641,26.48075 9.31641,22.8645 C9.31641,19.26075 12.23766,16.327 15.83766,16.30825" id="path506"></path>
            <path d="M7.97806,9.36867 C8.38181,9.36867 8.79181,9.40237 9.20431,9.46992 C10.29431,4.51117 14.63931,0.97867 19.78056,0.97867 C22.01931,0.97867 24.16806,1.65617 25.99556,2.93617 C26.28556,3.14117 26.35681,3.54242 26.15306,3.83367 C25.94806,4.12617 25.54681,4.19617 25.25431,3.99242 C23.64556,2.86367 21.75306,2.26742 19.78056,2.26742 C15.05306,2.26742 11.08681,5.65992 10.35431,10.33242 C10.32551,10.51242 10.22306,10.66992 10.07306,10.76992 C9.92431,10.86992 9.73931,10.90242 9.56181,10.85872 C9.02431,10.72497 8.49306,10.65747 7.97806,10.65747 C4.35806,10.65747 1.41181,13.60372 1.41181,17.22372 C1.41181,20.59997 3.94181,23.40747 7.29556,23.75372 C7.64931,23.79122 7.90681,24.10872 7.87056,24.46247 C7.83556,24.79372 7.55556,25.04122 7.22931,25.04122 C7.20811,25.04122 7.18431,25.04022 7.16311,25.03722 C3.14936,24.62222 0.12311,21.26347 0.12311,17.22347 C0.12311,12.89222 3.64686,9.36847 7.97811,9.36847" id="path510"></path>
            <path d="M15.40799,34.58514 C15.04118,34.58602 14.74508,34.88212 14.7442,35.24893 L14.7442,36.2707 L13.72243,36.2707 C13.3565,36.2707 13.05951,36.56769 13.05863,36.9345 C13.05951,37.30131 13.3565,37.59829 13.72243,37.59829 L14.7442,37.59829 L14.74331,38.61918 C14.74331,38.98511 15.0403,39.28209 15.40711,39.28298 C15.59096,39.28298 15.75801,39.20788 15.87733,39.08852 C15.99754,38.96831 16.07179,38.80214 16.0709,38.61918 L16.07179,37.59829 L17.09267,37.59741 C17.27652,37.59741 17.44181,37.52401 17.56202,37.40384 C17.68222,37.28363 17.75647,37.11746 17.75647,36.93361 C17.75559,36.5668 17.4586,36.26982 17.09267,36.26982 L16.07179,36.2707 L16.07179,35.24893 C16.07179,34.883 15.7748,34.58602 15.40799,34.58514" id="path3162"></path>
            <path d="M27.40799,34.58514 C27.04118,34.58602 26.74508,34.88212 26.7442,35.24893 L26.7442,36.2707 L25.72243,36.2707 C25.3565,36.2707 25.05951,36.56769 25.05863,36.9345 C25.05951,37.30131 25.3565,37.59829 25.72243,37.59829 L26.7442,37.59829 L26.74331,38.61918 C26.74331,38.98511 27.0403,39.28209 27.40711,39.28298 C27.59096,39.28298 27.75801,39.20788 27.87733,39.08852 C27.99754,38.96831 28.07179,38.80214 28.0709,38.61918 L28.07179,37.59829 L29.09267,37.59741 C29.27652,37.59741 29.44181,37.52401 29.56202,37.40384 C29.68222,37.28363 29.75647,37.11746 29.75647,36.93361 C29.75559,36.5668 29.4586,36.26982 29.09267,36.26982 L28.07179,36.2707 L28.07179,35.24893 C28.07179,34.883 27.7748,34.58602 27.40799,34.58514" id="path3164"></path>
            <path d="M39.40799,34.58514 C39.04118,34.58602 38.74508,34.88212 38.7442,35.24893 L38.7442,36.2707 L37.72243,36.2707 C37.3565,36.2707 37.05951,36.56769 37.05863,36.9345 C37.05951,37.30131 37.3565,37.59829 37.72243,37.59829 L38.7442,37.59829 L38.74331,38.61918 C38.74331,38.98511 39.0403,39.28209 39.40711,39.28298 C39.59096,39.28298 39.75801,39.20788 39.87733,39.08852 C39.99754,38.96831 40.07179,38.80214 40.0709,38.61918 L40.07179,37.59829 L41.09267,37.59741 C41.27652,37.59741 41.44181,37.52401 41.56202,37.40384 C41.68222,37.28363 41.75647,37.11746 41.75647,36.93361 C41.75559,36.5668 41.4586,36.26982 41.09267,36.26982 L40.07179,36.2707 L40.07179,35.24893 C40.07179,34.883 39.7748,34.58602 39.40799,34.58514" id="path3166"></path>
            <path d="M9.40799,42.58514 C9.04118,42.58602 8.74508,42.88212 8.7442,43.24893 L8.7442,44.2707 L7.72243,44.2707 C7.3565,44.2707 7.05951,44.56769 7.05863,44.9345 C7.05951,45.30131 7.3565,45.59829 7.72243,45.59829 L8.7442,45.59829 L8.74331,46.61918 C8.74331,46.98511 9.0403,47.28209 9.40711,47.28298 C9.59096,47.28298 9.75801,47.20788 9.87733,47.08852 C9.99754,46.96831 10.07179,46.80214 10.0709,46.61918 L10.07179,45.59829 L11.09267,45.59741 C11.27652,45.59741 11.44181,45.52401 11.56202,45.40384 C11.68222,45.28363 11.75647,45.11746 11.75647,44.93361 C11.75559,44.5668 11.4586,44.26982 11.09267,44.26982 L10.07179,44.2707 L10.07179,43.24893 C10.07179,42.883 9.7748,42.58602 9.40799,42.58514" id="path3168"></path>
            <path d="M21.40799,42.58514 C21.04118,42.58602 20.74508,42.88212 20.7442,43.24893 L20.7442,44.2707 L19.72243,44.2707 C19.3565,44.2707 19.05951,44.56769 19.05863,44.9345 C19.05951,45.30131 19.3565,45.59829 19.72243,45.59829 L20.7442,45.59829 L20.74331,46.61918 C20.74331,46.98511 21.0403,47.28209 21.40711,47.28298 C21.59096,47.28298 21.75801,47.20788 21.87733,47.08852 C21.99754,46.96831 22.07179,46.80214 22.0709,46.61918 L22.07179,45.59829 L23.09267,45.59741 C23.27652,45.59741 23.44181,45.52401 23.56202,45.40384 C23.68222,45.28363 23.75647,45.11746 23.75647,44.93361 C23.75559,44.5668 23.4586,44.26982 23.09267,44.26982 L22.07179,44.2707 L22.07179,43.24893 C22.07179,42.883 21.7748,42.58602 21.40799,42.58514" id="path3170"></path>
            <path d="M33.40799,42.58514 C33.04118,42.58602 32.74508,42.88212 32.7442,43.24893 L32.7442,44.2707 L31.72243,44.2707 C31.3565,44.2707 31.05951,44.56769 31.05863,44.9345 C31.05951,45.30131 31.3565,45.59829 31.72243,45.59829 L32.7442,45.59829 L32.74331,46.61918 C32.74331,46.98511 33.0403,47.28209 33.40711,47.28298 C33.59096,47.28298 33.75801,47.20788 33.87733,47.08852 C33.99754,46.96831 34.07179,46.80214 34.0709,46.61918 L34.07179,45.59829 L35.09267,45.59741 C35.27652,45.59741 35.44181,45.52401 35.56202,45.40384 C35.68222,45.28363 35.75647,45.11746 35.75647,44.93361 C35.75559,44.5668 35.4586,44.26982 35.09267,44.26982 L34.07179,44.2707 L34.07179,43.24893 C34.07179,42.883 33.7748,42.58602 33.40799,42.58514" id="path3172"></path>
        </g>
    </g>
</svg>