<?xml version="1.0" encoding="UTF-8"?>
<svg width="44px" height="45px" viewBox="0 0 44 45" version="1.1" xmlns="http://www.w3.org/2000/svg" xmlns:xlink="http://www.w3.org/1999/xlink">
    <!-- Generator: Sketch 51.2 (57519) - http://www.bohemiancoding.com/sketch -->
    <title>Group</title>
    <desc>Created with Sketch.</desc>
    <defs></defs>
    <g id="Page-1" stroke="none" stroke-width="1" fill="none" fill-rule="evenodd">
        <g id="Artboard" transform="translate(-320.000000, -223.000000)" fill="#357491" fill-rule="nonzero">
            <g id="Group" transform="translate(320.000000, 223.000000)">
                <path d="M22.20213,32.51505 C16.72338,32.51505 12.26713,28.05755 12.26713,22.5788 C12.26713,17.1013 16.72338,12.6438 22.20213,12.6438 C27.68088,12.6438 32.13713,17.1013 32.13713,22.5788 C32.13713,28.05755 27.68088,32.51505 22.20213,32.51505 M22.20213,11.24005 C15.94963,11.24005 10.86338,16.3263 10.86338,22.5788 C10.86338,28.8313 15.94963,33.9188 22.20213,33.9188 C28.45338,33.9188 33.54088,28.8313 33.54088,22.5788 C33.54088,16.3263 28.45338,11.24005 22.20213,11.24005" id="path22"></path>
                <path d="M22.20213,7.91605 C22.58963,7.91605 22.90338,7.6023 22.90338,7.21355 L22.90338,1.60855 C22.90338,1.22105 22.58963,0.9073 22.20213,0.9073 C21.81463,0.9073 21.49963,1.22105 21.49963,1.60855 L21.49963,7.21355 C21.49963,7.6023 21.81463,7.91605 22.20213,7.91605" id="path26"></path>
                <path d="M22.20213,37.08117 C21.81463,37.08117 21.49963,37.39492 21.49963,37.78367 L21.49963,43.38867 C21.49963,43.77617 21.81463,44.08992 22.20213,44.08992 C22.58963,44.08992 22.90338,43.77617 22.90338,43.38867 L22.90338,37.78367 C22.90338,37.39492 22.58963,37.08117 22.20213,37.08117" id="path30"></path>
                <path d="M29.87976,10.10055 C29.99476,10.17185 30.12226,10.20555 30.24851,10.20555 C30.48351,10.20555 30.71351,10.08805 30.84601,9.87305 L33.79726,5.1068 C33.99976,4.7768 33.89851,4.34555 33.56976,4.14055 C33.23976,3.9368 32.80726,4.03805 32.60351,4.36805 L29.65226,9.13555 C29.44851,9.4643 29.54976,9.8968 29.87976,10.10055" id="path34"></path>
                <path d="M14.52513,34.89667 C14.19638,34.69292 13.76263,34.79417 13.55888,35.12417 L10.60763,39.89042 C10.40388,40.22042 10.50638,40.65167 10.83513,40.85667 C10.95138,40.92787 11.07763,40.96167 11.20388,40.96167 C11.43888,40.96167 11.66888,40.84417 11.80138,40.62917 L14.75263,35.86167 C14.95638,35.53292 14.85388,35.10042 14.52513,34.89667" id="path38"></path>
                <path d="M35.68238,16.00392 C35.79488,16.00392 35.90738,15.97772 36.01363,15.92142 L40.95863,13.27267 C41.30113,13.09017 41.42988,12.66517 41.24613,12.32267 C41.06363,11.98267 40.63863,11.85267 40.29613,12.03642 L35.35113,14.68392 C35.00863,14.86642 34.87988,15.29267 35.06363,15.63392 C35.18988,15.87017 35.43238,16.00392 35.68238,16.00392" id="path42"></path>
                <path d="M8.38126,29.12092 L3.43376,31.76842 C3.09251,31.95217 2.96376,32.37592 3.14626,32.71842 C3.27376,32.95467 3.51501,33.08967 3.76626,33.08967 C3.87751,33.08967 3.99001,33.06217 4.09626,33.00587 L9.04251,30.35837 C9.38501,30.17462 9.51376,29.74962 9.33126,29.40712 C9.14751,29.06712 8.72376,28.93837 8.38126,29.12087" id="path46"></path>
                <path d="M43.10363,21.75829 L43.10163,21.75829 L37.49163,21.77449 C37.10413,21.77549 36.79038,22.09074 36.79163,22.47824 C36.79263,22.86449 37.10663,23.17824 37.49288,23.17824 L37.49488,23.17824 L43.10488,23.16204 C43.49238,23.16104 43.80613,22.84579 43.80488,22.45829 C43.80388,22.07079 43.48988,21.75829 43.10363,21.75829" id="path50"></path>
                <path d="M7.60489,22.56092 C7.60389,22.17342 7.28989,21.86092 6.90239,21.86092 L6.90139,21.86092 L1.29139,21.87722 C0.90264,21.87822 0.59014,22.19347 0.59139,22.58097 C0.59239,22.96847 0.90639,23.28097 1.29264,23.28097 L1.29464,23.28097 L6.90464,23.26467 C7.29214,23.26367 7.60464,22.94842 7.60464,22.56092" id="path54"></path>
                <path d="M40.89051,31.90842 L35.96551,29.21717 C35.62551,29.03092 35.19926,29.15587 35.01301,29.49592 C34.82801,29.83592 34.95301,30.26342 35.29301,30.44842 L40.21676,33.13842 C40.32426,33.19842 40.43926,33.22592 40.55301,33.22592 C40.80051,33.22592 41.04301,33.09342 41.16926,32.86092 C41.35551,32.51967 41.22926,32.09342 40.89051,31.90842" id="path58"></path>
                <path d="M9.11439,14.54079 L4.19064,11.84954 C3.85064,11.66329 3.42314,11.78824 3.23814,12.12829 C3.05189,12.46829 3.17684,12.89579 3.51689,13.08079 L8.44064,15.77204 C8.54814,15.83084 8.66314,15.85834 8.77689,15.85834 C9.02564,15.85834 9.26689,15.72584 9.39439,15.49334 C9.57939,15.15334 9.45439,14.72584 9.11439,14.54084" id="path62"></path>
                <path d="M30.90938,35.0963 C30.70438,34.7688 30.27188,34.66755 29.94313,34.8738 C29.61438,35.0788 29.51438,35.51255 29.72063,35.84005 L32.69438,40.5988 C32.82688,40.8113 33.05563,40.92755 33.28938,40.92755 C33.41688,40.92755 33.54438,40.89385 33.66063,40.8213 C33.98938,40.6163 34.08938,40.18255 33.88438,39.8538 L30.90938,35.0963 Z" id="path66"></path>
                <path d="M13.49726,9.8943 C13.62976,10.1068 13.85976,10.2243 14.09226,10.2243 C14.21976,10.2243 14.34851,10.1893 14.46351,10.11805 C14.79226,9.9118 14.89226,9.47805 14.68726,9.15055 L11.71226,4.3918 C11.50726,4.0643 11.07476,3.96305 10.74476,4.1693 C10.41601,4.3743 10.31726,4.80805 10.52226,5.13555 L13.49726,9.8943 Z" id="path70"></path>
            </g>
        </g>
    </g>
</svg>