<?xml version="1.0" encoding="UTF-8"?>
<svg width="20px" height="35px" viewBox="0 0 20 35" version="1.1" xmlns="http://www.w3.org/2000/svg" xmlns:xlink="http://www.w3.org/1999/xlink">
    <!-- Generator: Sketch 51.2 (57519) - http://www.bohemiancoding.com/sketch -->
    <title>path4253</title>
    <desc>Created with Sketch.</desc>
    <defs></defs>
    <g id="Page-1" stroke="none" stroke-width="1" fill="none" fill-rule="evenodd">
        <g id="Artboard" transform="translate(-122.000000, -228.000000)" fill="#357491" fill-rule="nonzero">
            <path d="M127.622144,228 C127.277824,228 126.901494,228.10304 126.622144,228.3125 C126.352674,228.51459 126.152874,228.79849 126.059644,229.125 L126.059644,229.1563 L122.028394,245.6563 L122.028394,245.6876 C121.921444,246.20018 122.122794,246.78706 122.528394,247.1251 C122.823674,247.3756 123.209224,247.53135 123.590894,247.53135 C123.714544,247.53135 123.845014,247.50465 123.997144,247.46885 L124.028444,247.46885 L130.997194,245.7501 L127.340944,260.7501 C127.338944,260.7601 127.342944,260.7714 127.340944,260.7814 C127.258244,261.14742 127.302044,261.58571 127.497194,261.9064 C127.698934,262.23912 128.038284,262.4863 128.403444,262.5939 L128.434744,262.5939 L128.497244,262.5939 C128.646624,262.6233 128.731924,262.6564 128.903494,262.6564 C129.490794,262.6564 130.100524,262.30331 130.372244,261.7814 L130.372244,261.7501 L141.153494,238.6251 C141.372854,238.14675 141.248294,237.52092 140.934744,237.09385 C140.908744,237.05845 140.932744,237.00125 140.903444,236.96885 L140.653444,237.15635 L140.872194,236.9376 C140.567694,236.6331 140.152384,236.43844 139.715944,236.4376 C139.544924,236.4376 139.441404,236.4675 139.309694,236.5001 L132.653444,238.15635 L135.590944,230.1876 C135.600944,230.1676 135.612744,230.1455 135.622244,230.1251 C135.706544,229.94234 135.778494,229.75947 135.778494,229.53135 C135.778494,229.12582 135.596814,228.71376 135.309744,228.4376 C135.013544,228.15231 134.591144,228.0001 134.184744,228.0001 L127.622244,228.0001 L127.622144,228 Z M127.622144,229.375 L134.184644,229.375 C134.284144,229.375 134.290674,229.3891 134.340894,229.4375 C134.400194,229.4945 134.372194,229.4839 134.372194,229.5312 C134.372194,229.491 134.374194,229.4949 134.340894,229.5625 L134.340894,229.625 L134.309594,229.6563 L130.903344,238.9063 L130.434594,240.12505 L131.715844,239.81255 L139.653344,237.87505 C139.735544,237.85465 139.779464,237.84375 139.715844,237.84375 C139.771744,237.84386 139.815854,237.85765 139.872094,237.90625 C139.877094,237.91025 139.867094,237.93275 139.872094,237.93755 C139.908594,237.96085 139.946094,237.93813 139.903394,238.03125 L129.122144,261.125 C129.109444,261.1494 129.098544,261.1404 129.090844,261.1563 C129.053144,261.2341 129.057444,261.25 128.903344,261.25 C128.940944,261.25 128.851544,261.255 128.809644,261.25 C128.765744,261.2371 128.760344,261.2283 128.747144,261.2187 C128.733944,261.2087 128.728344,261.1768 128.715844,261.1562 C128.689644,261.1132 128.671244,261.1472 128.684544,261.0937 L132.622044,244.93745 L132.903294,243.81245 L131.778294,244.0937 L123.684544,246.12495 L123.653244,246.12495 C123.718244,246.10795 123.671244,246.12495 123.590744,246.12495 C123.492544,246.12495 123.485654,246.10585 123.434494,246.06245 C123.382494,246.01915 123.391494,246.02095 123.403194,245.99995 L123.403194,245.96865 L127.403194,229.53115 L127.403194,229.49985 C127.412194,229.47505 127.426894,229.46645 127.465694,229.43735 C127.506294,229.40695 127.539794,229.37485 127.621944,229.37485 L127.622144,229.375 Z" id="path4253"></path>
        </g>
    </g>
</svg>